<?xml version="1.0" encoding="UTF-8"?>
<svg id="Camada_2" data-name="Camada 2" xmlns="http://www.w3.org/2000/svg" viewBox="0 0 65.73 74.58">
  <defs>
    <style>
      .cls-1 {
        fill: #1a1a1a;
      }
    </style>
  </defs>
  <g id="Camada_1-2" data-name="Camada 1">
    <g>
      <path class="cls-1" d="M39.01,25.3H10.15c-.54,0-1.07.22-1.45.6l-7.72,7.72c-.72.72-.21,1.95.81,1.95h28.32c.38,0,.68.31.68.68v8.9c0,.38-.31.68-.68.68h-13.69C7.35,45.83,0,53.19,0,62.26v10.27c0,1.13.92,2.05,2.05,2.05h31.71c4.03,0,7.3-3.27,7.3-7.3V27.36c0-1.13-.92-2.05-2.05-2.05ZM30.11,64.31H10.95c-.38,0-.68-.31-.68-.68v-5.47c0-1.13.92-2.05,2.05-2.05h17.79c.38,0,.68.31.68.68v6.84c0,.38-.31.68-.68.68Z"/>
      <path class="cls-1" d="M55.46,12.32v27.09c0,.61.74.92,1.17.48l8.5-8.5c.39-.39.6-.91.6-1.45V2.05c0-1.13-.92-2.05-2.05-2.05h-28.86c-.54,0-1.07.22-1.45.6l-8.5,8.5c-.43.43-.13,1.17.48,1.17h28.06c1.13,0,2.05.92,2.05,2.05Z"/>
    </g>
  </g>
</svg>