<?xml version="1.0" encoding="UTF-8"?>
<svg id="Camada_2" data-name="Camada 2" xmlns="http://www.w3.org/2000/svg" viewBox="0 0 44.29 50">
  <defs>
    <style>
      .cls-1 {
        fill: gray;
      }
    </style>
  </defs>
  <g id="Camada_1-2" data-name="Camada 1">
    <g>
      <path class="cls-1" d="M43.88,24.6l-17.37-11.97L43.98,1.25c.25-.16.37-.47.28-.76-.09-.29-.35-.49-.65-.49C43.61,0,34.39,0,25.16,0c-4.62,0-9.24.02-12.71.05q-6.23.05-6.44.54c-.04.09-.06.19-.05.29v24.28c0,.37.3.68.68.68h36.85c.3,0,.56-.19.65-.48.09-.28-.02-.59-.26-.76ZM7.32,24.48V1.48c3.39-.11,20.95-.14,34.01-.12l-16.4,10.68c-.19.12-.31.33-.31.56,0,.23.11.44.29.57l16.41,11.31H7.32Z"/>
      <path class="cls-1" d="M.68.06C.3.06,0,.37,0,.74v48.58c0,.37.3.68.68.68s.68-.3.68-.68V.74C1.36.37,1.05.06.68.06Z"/>
    </g>
  </g>
</svg>