<?xml version="1.0" encoding="UTF-8"?>
<svg id="Camada_2" data-name="Camada 2" xmlns="http://www.w3.org/2000/svg" viewBox="0 0 45 50">
  <defs>
    <style>
      .cls-1 {
        fill: gray;
      }
    </style>
  </defs>
  <g id="Camada_1-2" data-name="Camada 1">
    <g>
      <path class="cls-1" d="M10.53.45c-.1-.26-.35-.45-.65-.45s-.54.19-.65.45L.1,15.98c-.2.33-.08.76.25.95.33.2.76.08.95-.25L9.19,3.28v46.03c0,.38.31.7.7.7s.7-.31.7-.7V3.28l7.89,13.41c.13.22.36.34.6.34.12,0,.24-.03.35-.1.33-.19.44-.62.25-.95L10.53.45Z"/>
      <path class="cls-1" d="M44.66,33.06c-.33-.19-.76-.08-.95.25l-7.89,13.41V.7c0-.38-.31-.7-.7-.7s-.7.31-.7.7v46.03l-7.89-13.41c-.19-.33-.62-.44-.95-.25-.33.19-.44.62-.25.95l9.14,15.54c.1.26.35.45.65.45s.54-.19.65-.45l9.14-15.54c.2-.33.08-.76-.25-.95Z"/>
    </g>
  </g>
</svg>