<?xml version="1.0" encoding="UTF-8"?>
<svg id="Camada_2" data-name="Camada 2" xmlns="http://www.w3.org/2000/svg" viewBox="0 0 63.56 51.76">
  <defs>
    <style>
      .cls-1 {
        fill: gray;
      }
    </style>
  </defs>
  <g id="Camada_1-2" data-name="Camada 1">
    <g>
      <path class="cls-1" d="M46.26,43.95H2.35c-1.3,0-2.35-1.05-2.35-2.35v-9.12c0-1.3,1.05-2.35,2.35-2.35h37c.49,0,.88.39.88.88h0c0,.49-.39.88-.88.88H1.76v10.31h45.09v-4.97c0-.49.39-.88.88-.88h0c.49,0,.88.39.88.88v4.38c0,1.3-1.05,2.35-2.35,2.35Z"/>
      <path class="cls-1" d="M31.38,14.42H2.01c-1.11,0-2.01-.9-2.01-2.01V2.01C0,.9.9,0,2.01,0h21.57c.49,0,.88.39.88.88h0c0,.49-.39.88-.88.88H1.76v10.91h29.87v-4.02c0-.49.39-.88.88-.88h0c.49,0,.88.39.88.88v3.77c0,1.11-.9,2.01-2.01,2.01Z"/>
      <path class="cls-1" d="M39.8,22.75H.88c-.49,0-.88-.39-.88-.88h0c0-.49.39-.88.88-.88h38.92c.49,0,.88.39.88.88h0c0,.49-.39.88-.88.88Z"/>
      <path class="cls-1" d="M62.68,51.76H.88c-.49,0-.88-.39-.88-.88h0c0-.49.39-.88.88-.88h61.8c.49,0,.88.39.88.88h0c0,.49-.39.88-.88.88Z"/>
    </g>
  </g>
</svg>