<?xml version="1.0" encoding="UTF-8"?>
<svg id="Camada_2" data-name="Camada 2" xmlns="http://www.w3.org/2000/svg" viewBox="0 0 342.1 51.98">
  <defs>
    <style>
      .cls-1, .cls-2 {
        fill-rule: evenodd;
      }

      .cls-1, .cls-3 {
        fill: #1a1a1a;
      }

      .cls-2 {
        fill: #a3a3a3;
      }
    </style>
  </defs>
  <g id="Camada_1-2" data-name="Camada 1">
    <g>
      <g>
        <path class="cls-2" d="M25.99,0C40.34,0,51.98,11.64,51.98,25.99s-11.64,25.99-25.99,25.99S0,40.35,0,25.99,11.64,0,25.99,0h0Z"/>
        <path class="cls-3" d="M19.57,17c0,1.41-.9,2.57-2.57,2.57-1.54,0-2.57-1.16-2.57-2.44,0-1.41,1.03-2.7,2.57-2.7s2.57,1.16,2.57,2.57h0Z"/>
        <polygon class="cls-3" points="14.43 37.55 19.57 37.55 19.57 20.85 14.43 20.85 14.43 37.55 14.43 37.55"/>
        <path class="cls-3" d="M31.9,21.11c-2.7,0-4.24,1.54-4.88,2.57h-.13l-.26-2.18h-4.62c0,1.41.13,3.08.13,5.01v11.05h5.14v-9.12c0-.51,0-.9.13-1.28.38-.9,1.03-2.05,2.44-2.05,1.8,0,2.57,1.54,2.57,3.6v8.86h5.14v-9.5c0-4.75-2.44-6.94-5.65-6.94h0Z"/>
      </g>
      <g>
        <path class="cls-2" d="M98.52,0C112.87,0,124.51,11.64,124.51,25.99s-11.64,25.99-25.99,25.99-25.99-11.64-25.99-25.99S84.17,0,98.52,0h0Z"/>
        <path class="cls-3" d="M98.53,14.5c-1.98,0-3.95-.04-5.93,0-3.09.07-4.98,1.52-5.54,4.18-.12.56-.21,1.15-.21,1.72-.02,3.74-.07,7.48,0,11.22.08,3.72,1.96,5.71,5.55,5.84,4.06.15,8.12.14,12.17,0,2.99-.1,4.77-1.54,5.34-4.12.1-.46.2-.94.2-1.41.02-4.27.26-8.54-.13-12.79-.23-2.52-1.92-4.17-4.43-4.51-2.33-.32-4.68-.09-7.02-.14h0ZM84.1,19.35c.25-1.32.49-2.64,1.21-3.81,1.64-2.67,4.2-3.7,7.16-3.77,4.03-.1,8.06-.1,12.09,0,2.74.07,5.17.97,6.83,3.34,1.07,1.53,1.47,3.27,1.5,5.08.06,3.87.09,7.75,0,11.62-.07,3.12-1.16,5.78-4.08,7.36-1.35.73-2.83,1.05-4.34,1.07-3.98.04-7.96.08-11.93,0-2.98-.07-5.58-1.08-7.23-3.78-.72-1.17-.95-2.5-1.21-3.81v-13.28h0Z"/>
        <path class="cls-3" d="M103.19,26.01c0-2.56-2.1-4.65-4.69-4.67-2.57-.01-4.71,2.09-4.71,4.64,0,2.56,2.1,4.65,4.69,4.67,2.57.01,4.71-2.09,4.71-4.64h0ZM105.96,26.04c-.01,4.02-3.35,7.32-7.44,7.37-4.11.05-7.52-3.34-7.5-7.47.01-4.06,3.47-7.45,7.52-7.37,4.15.08,7.44,3.38,7.43,7.47h0Z"/>
        <path class="cls-3" d="M106.17,16.63c.99-.01,1.83.81,1.82,1.79,0,.94-.81,1.74-1.77,1.77-.99.03-1.84-.78-1.86-1.75-.02-.98.79-1.79,1.81-1.8h0Z"/>
      </g>
      <g>
        <path class="cls-2" d="M171.05,0c14.35,0,25.99,11.64,25.99,25.99s-11.64,25.99-25.99,25.99-25.99-11.64-25.99-25.99S156.7,0,171.05,0h0Z"/>
        <path class="cls-3" d="M165.36,18.19c-.3.1-.55.28-.93.67-.83.86-1.21,1.77-1.27,2.98-.06,1.39.48,2.93,1.71,4.83,2.05,3.17,4.12,5.03,6.85,6.17,1.4.58,2.31.88,2.91.97.45.06,1.35-.07,1.9-.29.5-.19,1.2-.65,1.51-.99.48-.52.89-1.69.89-2.52,0-.34-.01-.39-.13-.52-.25-.27-3.33-1.88-3.69-1.93-.33-.04-.46.05-1.01.68-.84.99-1.11,1.24-1.26,1.24-.18,0-1.35-.59-1.9-.96-1.36-.9-2.5-2.14-3.39-3.71-.07-.13-.13-.25-.13-.28s.16-.22.35-.43c.46-.5.61-.73.8-1.2.22-.53.21-.67-.08-1.47-.43-1.17-.56-1.53-.8-2.16-.24-.65-.43-.94-.68-1.04-.23-.1-1.42-.14-1.66-.06h0Z"/>
        <path class="cls-1" d="M156.51,25.86c0,1.55.21,2.61.52,3.87.45,1.8.84,2.41,1.62,3.76.68,1.18-1.32,3.79-1.32,6.02,0,1.84,3.91-.08,5.38-.63,1.55-.59,1.03-.02,4.14,1.02,4.84,1.62,11.08.1,14.61-3.71,2.65-2.87,4.01-6.36,4.14-9.8v-1.12c-.14-3.6-1.62-7.08-4.34-9.67-.39-.37-.58-.45-.98-.81-1.57-1.41-3.85-2.45-5.99-2.95-5.17-1.2-10.41.55-13.76,4.24l-1.28,1.49c-.49.66-1.01,1.56-1.38,2.35-.73,1.59-1.35,3.71-1.35,5.96h0ZM159.6,38.01c.91-.32,1.96-.79,2.42-.96.68-.26,1.32-.44,2.06-.33.58.09,1.01.32,1.52.57.61.3,1.22.54,1.86.75,4.15,1.39,9.58.04,12.57-3.19,2.17-2.34,3.49-5.32,3.62-8.52v-1.04c-.13-3.16-1.44-6.12-3.74-8.31-.29-.28-.63-.5-.94-.77-1.35-1.22-3.36-2.09-5.13-2.5-4.33-1-8.89.36-11.85,3.61l-1.23,1.43c-.43.59-.84,1.3-1.14,1.96-.73,1.58-1.17,3.4-1.17,5.14,0,1.23.17,2.22.46,3.4.35,1.42.7,2.01,1.41,3.25,1.01,1.75-.14,3.79-.72,5.48,0,0,0,.02,0,.03h0Z"/>
      </g>
      <g>
        <path class="cls-2" d="M243.58,0c14.35,0,25.99,11.64,25.99,25.99s-11.64,25.99-25.99,25.99-25.99-11.64-25.99-25.99S229.22,0,243.58,0h0Z"/>
        <path class="cls-3" d="M235.92,15.49c-.41.14-.75.38-1.25.9-1.11,1.16-1.64,2.38-1.71,4.01-.09,1.88.65,3.95,2.3,6.51,2.77,4.27,5.54,6.77,9.22,8.3,1.88.78,3.11,1.19,3.92,1.31.61.08,1.81-.1,2.56-.39.67-.26,1.62-.88,2.03-1.33.64-.71,1.2-2.28,1.2-3.39,0-.46-.01-.52-.18-.71-.33-.37-4.48-2.53-4.97-2.6-.44-.06-.62.06-1.35.92-1.14,1.33-1.49,1.67-1.69,1.67-.24,0-1.81-.79-2.56-1.29-1.84-1.22-3.37-2.88-4.56-5-.1-.17-.18-.33-.18-.37s.21-.3.46-.58c.61-.67.82-.98,1.08-1.62.3-.71.29-.9-.11-1.98-.57-1.57-.76-2.06-1.07-2.9-.33-.88-.58-1.26-.91-1.4-.31-.13-1.91-.18-2.23-.08h0Z"/>
      </g>
      <g>
        <path class="cls-2" d="M316.11,0c14.35,0,25.99,11.64,25.99,25.99s-11.64,25.99-25.99,25.99-25.99-11.64-25.99-25.99S301.75,0,316.11,0h0Z"/>
        <path class="cls-3" d="M327.66,17.06s-.01-.01-.02-.02c-.01-.01-.03-.03-.05-.04-.52-.47-1.22-.76-1.98-.76h-19.01c-.76,0-1.45.29-1.98.76-.02.01-.03.03-.05.04,0,0-.01.01-.02.02-.57.54-.92,1.3-.92,2.14v13.58c0,.84.35,1.6.92,2.14,0,0,.01.01.02.02.01.01.03.03.05.04.52.47,1.22.76,1.98.76h19.01c.76,0,1.45-.29,1.98-.76.02-.01.03-.03.05-.04,0,0,.01-.01.02-.02.57-.54.92-1.3.92-2.14v-13.58c0-.84-.35-1.6-.92-2.14ZM319.58,25.99l7.63-7.71c.16.27.25.59.25.92v13.58c0,.34-.09.65-.25.92l-7.63-7.71ZM325.61,17.36c.27,0,.53.06.76.16l-7.98,8.07s0,0,0,0c0,0,0,0,0,0l-1.39,1.41c-.24.24-.56.37-.89.37s-.66-.13-.89-.37l-1.39-1.41s0,0,0,0c0,0,0,0,0,0l-7.98-8.07c.23-.11.49-.16.76-.16h19.01ZM305.01,33.7c-.16-.27-.25-.59-.25-.92v-13.58c0-.34.09-.65.25-.92l7.63,7.71-7.63,7.71ZM306.6,34.62c-.27,0-.53-.06-.76-.16l7.58-7.67.99,1c.45.46,1.05.71,1.69.71s1.24-.25,1.69-.71l.99-1,7.58,7.67c-.23.11-.49.16-.76.16h-19.01Z"/>
      </g>
    </g>
  </g>
</svg>