<?xml version="1.0" encoding="UTF-8"?>
<svg id="Camada_2" data-name="Camada 2" xmlns="http://www.w3.org/2000/svg" viewBox="0 0 51.98 51.98">
  <defs>
    <style>
      .cls-1 {
        fill-rule: evenodd;
      }

      .cls-1, .cls-2 {
        fill: #a3a3a3;
      }
    </style>
  </defs>
  <g id="Camada_1-2" data-name="Camada 1">
    <g>
      <path class="cls-2" d="M26,14.5c-1.98,0-3.95-.04-5.93,0-3.09.07-4.98,1.52-5.54,4.18-.12.56-.21,1.15-.21,1.72-.02,3.74-.07,7.48,0,11.22.08,3.72,1.96,5.71,5.55,5.84,4.06.15,8.12.14,12.17,0,2.99-.1,4.77-1.54,5.34-4.12.1-.46.2-.94.2-1.41.02-4.27.26-8.54-.13-12.79-.23-2.52-1.92-4.17-4.43-4.51-2.33-.32-4.68-.09-7.02-.14h0ZM11.57,19.35c.25-1.32.49-2.64,1.21-3.81,1.64-2.67,4.2-3.7,7.16-3.77,4.03-.1,8.06-.1,12.09,0,2.74.07,5.17.97,6.83,3.34,1.07,1.53,1.47,3.27,1.5,5.08.06,3.87.09,7.75,0,11.62-.07,3.12-1.16,5.78-4.08,7.36-1.35.73-2.83,1.05-4.34,1.07-3.98.04-7.96.08-11.93,0-2.98-.07-5.58-1.08-7.23-3.78-.72-1.17-.95-2.5-1.21-3.81v-13.28h0Z"/>
      <path class="cls-2" d="M30.66,26.01c0-2.56-2.1-4.65-4.69-4.67-2.57-.01-4.71,2.09-4.71,4.64,0,2.56,2.1,4.65,4.69,4.67,2.57.01,4.71-2.09,4.71-4.64h0ZM33.43,26.04c-.01,4.02-3.35,7.32-7.44,7.37-4.11.05-7.52-3.34-7.5-7.47.01-4.06,3.47-7.45,7.52-7.37,4.15.08,7.44,3.38,7.43,7.47h0Z"/>
      <path class="cls-2" d="M33.64,16.62c.99-.01,1.83.81,1.82,1.79,0,.94-.81,1.74-1.77,1.77-.99.03-1.84-.78-1.86-1.75-.02-.98.79-1.79,1.81-1.8h0Z"/>
      <path class="cls-1" d="M25.99,0c14.35,0,25.99,11.64,25.99,25.99s-11.64,25.99-25.99,25.99S0,40.34,0,25.99,11.64,0,25.99,0h0ZM25.99,2.1c13.2,0,23.89,10.7,23.89,23.89s-10.7,23.89-23.89,23.89S2.1,39.19,2.1,25.99,12.8,2.1,25.99,2.1h0Z"/>
    </g>
  </g>
</svg>