<?xml version="1.0" encoding="UTF-8"?>
<svg id="Camada_2" data-name="Camada 2" xmlns="http://www.w3.org/2000/svg" viewBox="0 0 51.98 51.98">
  <defs>
    <style>
      .cls-1 {
        fill-rule: evenodd;
      }

      .cls-1, .cls-2 {
        fill: #a3a3a3;
      }
    </style>
  </defs>
  <g id="Camada_1-2" data-name="Camada 1">
    <g>
      <path class="cls-2" d="M19.57,17c0,1.41-.9,2.57-2.57,2.57-1.54,0-2.57-1.16-2.57-2.44,0-1.41,1.03-2.7,2.57-2.7s2.57,1.16,2.57,2.57h0Z"/>
      <polygon class="cls-2" points="14.43 37.55 19.57 37.55 19.57 20.85 14.43 20.85 14.43 37.55 14.43 37.55"/>
      <path class="cls-2" d="M31.9,21.11c-2.7,0-4.24,1.54-4.88,2.57h-.13l-.26-2.18h-4.62c0,1.41.13,3.08.13,5.01v11.05h5.14v-9.12c0-.51,0-.9.13-1.28.38-.9,1.03-2.05,2.44-2.05,1.8,0,2.57,1.54,2.57,3.6v8.86h5.14v-9.5c0-4.75-2.44-6.94-5.65-6.94h0Z"/>
      <path class="cls-1" d="M25.99,0c14.35,0,25.99,11.64,25.99,25.99s-11.64,25.99-25.99,25.99S0,40.34,0,25.99,11.64,0,25.99,0h0ZM25.99,2.1c13.2,0,23.89,10.7,23.89,23.89s-10.7,23.89-23.89,23.89S2.1,39.19,2.1,25.99,12.79,2.1,25.99,2.1h0Z"/>
    </g>
  </g>
</svg>