<?xml version="1.0" encoding="UTF-8"?>
<svg id="Camada_2" data-name="Camada 2" xmlns="http://www.w3.org/2000/svg" viewBox="0 0 51.98 51.98">
  <defs>
    <style>
      .cls-1 {
        fill-rule: evenodd;
      }

      .cls-1, .cls-2 {
        fill: #a3a3a3;
      }
    </style>
  </defs>
  <g id="Camada_1-2" data-name="Camada 1">
    <g>
      <path class="cls-1" d="M25.99,0c14.35,0,25.99,11.64,25.99,25.99s-11.64,25.99-25.99,25.99S0,40.34,0,25.99,11.64,0,25.99,0h0ZM25.99,2.1c13.2,0,23.89,10.7,23.89,23.89s-10.7,23.89-23.89,23.89S2.1,39.19,2.1,25.99,12.8,2.1,25.99,2.1h0Z"/>
      <path class="cls-2" d="M37.54,17.06s-.01-.01-.02-.02c-.01-.01-.03-.03-.05-.04-.52-.47-1.22-.76-1.98-.76h-19.01c-.76,0-1.45.29-1.98.76-.02.01-.03.03-.05.04,0,0-.01.01-.02.02-.57.54-.92,1.3-.92,2.14v13.58c0,.84.35,1.6.92,2.14,0,0,.01.01.02.02.01.01.03.03.05.04.52.47,1.22.76,1.98.76h19.01c.76,0,1.45-.29,1.98-.76.02-.01.03-.03.05-.04,0,0,.01-.01.02-.02.57-.54.92-1.3.92-2.14v-13.58c0-.84-.35-1.6-.92-2.14ZM29.46,25.99l7.63-7.71c.16.27.25.59.25.92v13.58c0,.34-.09.65-.25.92l-7.63-7.71ZM35.5,17.36c.27,0,.53.06.76.16l-7.98,8.07s0,0,0,0c0,0,0,0,0,0l-1.39,1.41c-.24.24-.56.37-.89.37s-.66-.13-.89-.37l-1.39-1.41s0,0,0,0c0,0,0,0,0,0l-7.98-8.07c.23-.11.49-.16.76-.16h19.01ZM14.89,33.7c-.16-.27-.25-.59-.25-.92v-13.58c0-.34.09-.65.25-.92l7.63,7.71-7.63,7.71ZM16.49,34.62c-.27,0-.53-.06-.76-.16l7.58-7.67.99,1c.45.46,1.05.71,1.69.71s1.24-.25,1.69-.71l.99-1,7.58,7.67c-.23.11-.49.16-.76.16h-19.01Z"/>
    </g>
  </g>
</svg>