<?xml version="1.0" encoding="UTF-8"?>
<svg id="Camada_2" data-name="Camada 2" xmlns="http://www.w3.org/2000/svg" viewBox="0 0 51.98 51.98">
  <defs>
    <style>
      .cls-1 {
        fill-rule: evenodd;
      }

      .cls-1, .cls-2 {
        fill: #a3a3a3;
      }
    </style>
  </defs>
  <g id="Camada_1-2" data-name="Camada 1">
    <g>
      <path class="cls-2" d="M18.33,15.49c-.41.14-.75.38-1.25.9-1.11,1.16-1.64,2.38-1.71,4.01-.09,1.88.65,3.95,2.3,6.51,2.77,4.27,5.54,6.77,9.22,8.3,1.88.78,3.11,1.19,3.92,1.31.61.08,1.81-.1,2.56-.39.67-.26,1.62-.88,2.03-1.33.64-.71,1.2-2.28,1.2-3.39,0-.46-.01-.52-.18-.71-.33-.37-4.48-2.53-4.97-2.6-.44-.06-.62.06-1.35.92-1.14,1.33-1.49,1.67-1.69,1.67-.24,0-1.81-.79-2.56-1.29-1.84-1.22-3.37-2.88-4.56-5-.1-.17-.18-.33-.18-.37s.21-.3.46-.58c.61-.67.82-.98,1.08-1.62.3-.71.29-.9-.11-1.98-.57-1.57-.76-2.06-1.07-2.9-.33-.88-.58-1.26-.91-1.4-.31-.13-1.91-.18-2.23-.08h0Z"/>
      <path class="cls-1" d="M25.99,0c14.35,0,25.99,11.64,25.99,25.99s-11.64,25.99-25.99,25.99S0,40.34,0,25.99,11.64,0,25.99,0h0ZM25.99,2.1c13.2,0,23.89,10.7,23.89,23.89s-10.7,23.89-23.89,23.89S2.1,39.19,2.1,25.99,12.8,2.1,25.99,2.1h0Z"/>
    </g>
  </g>
</svg>