<?xml version="1.0" encoding="UTF-8"?>
<svg id="Camada_2" data-name="Camada 2" xmlns="http://www.w3.org/2000/svg" viewBox="0 0 50 50">
  <defs>
    <style>
      .cls-1 {
        fill: #e3e3e3;
        fill-rule: evenodd;
      }

      .cls-2 {
        fill: #1a1a1a;
      }
    </style>
  </defs>
  <g id="Camada_1-2" data-name="Camada 1">
    <g>
      <path class="cls-1" d="M25,0c13.81,0,25,11.19,25,25s-11.19,25-25,25S0,38.81,0,25,11.19,0,25,0h0Z"/>
      <path class="cls-2" d="M17.64,14.9c-.39.13-.72.36-1.2.87-1.07,1.12-1.57,2.29-1.64,3.86-.08,1.8.62,3.8,2.21,6.26,2.66,4.11,5.33,6.52,8.87,7.99,1.81.75,2.99,1.15,3.77,1.26.59.08,1.74-.09,2.46-.37.65-.25,1.55-.84,1.96-1.28.62-.68,1.15-2.19,1.15-3.26,0-.45-.01-.5-.17-.68-.32-.35-4.31-2.43-4.78-2.5-.43-.06-.6.06-1.3.89-1.09,1.28-1.43,1.61-1.63,1.61-.23,0-1.74-.76-2.47-1.24-1.77-1.17-3.24-2.77-4.39-4.81-.09-.16-.17-.32-.17-.36s.2-.29.45-.55c.59-.65.79-.94,1.04-1.55.29-.68.28-.87-.11-1.9-.55-1.51-.73-1.98-1.03-2.79-.32-.84-.55-1.21-.87-1.35-.3-.13-1.84-.18-2.14-.08h0Z"/>
    </g>
  </g>
</svg>