<?xml version="1.0" encoding="UTF-8"?>
<svg id="Camada_2" data-name="Camada 2" xmlns="http://www.w3.org/2000/svg" viewBox="0 0 24.53 24.54">
  <defs>
    <style>
      .cls-1 {
        fill-rule: evenodd;
      }

      .cls-1, .cls-2 {
        fill: #1a1a1a;
      }
    </style>
  </defs>
  <g id="Camada_1-2" data-name="Camada 1">
    <g>
      <path class="cls-2" d="M7.47,5.69c-.26.09-.47.24-.78.57-.7.73-1.02,1.49-1.07,2.52-.05,1.18.41,2.47,1.44,4.08,1.73,2.68,3.47,4.24,5.78,5.2,1.18.49,1.95.75,2.46.82.38.05,1.14-.06,1.6-.24.42-.16,1.01-.55,1.27-.84.4-.44.75-1.43.75-2.13,0-.29,0-.33-.11-.44-.21-.23-2.81-1.59-3.11-1.63-.28-.04-.39.04-.85.58-.71.83-.93,1.05-1.06,1.05-.15,0-1.14-.5-1.61-.81-1.15-.76-2.11-1.81-2.86-3.13-.06-.11-.11-.21-.11-.23s.13-.19.29-.36c.38-.42.51-.61.67-1.01.19-.45.18-.56-.07-1.24-.36-.98-.48-1.29-.67-1.82-.21-.55-.36-.79-.57-.88-.19-.08-1.2-.11-1.4-.05h0Z"/>
      <path class="cls-1" d="M0,12.16c0,1.31.17,2.2.44,3.26.38,1.52.71,2.03,1.37,3.17.58.99-1.12,3.2-1.12,5.08,0,1.56,3.3-.06,4.54-.53,1.31-.5.87-.01,3.49.86,4.08,1.36,9.35.09,12.32-3.13,2.24-2.42,3.38-5.36,3.49-8.27v-.94c-.12-3.04-1.36-5.98-3.66-8.16-.33-.31-.49-.38-.82-.68-1.33-1.19-3.25-2.07-5.05-2.49C10.63-.69,6.21.78,3.38,3.89l-1.08,1.25c-.41.56-.86,1.31-1.17,1.99-.62,1.34-1.14,3.13-1.14,5.03h0ZM2.6,22.41c.77-.27,1.66-.66,2.04-.81.57-.22,1.12-.37,1.74-.28.49.07.86.27,1.29.48.51.25,1.03.45,1.57.63,3.51,1.17,8.09.03,10.6-2.69,1.83-1.98,2.94-4.49,3.05-7.19v-.88c-.11-2.67-1.22-5.17-3.15-7.01-.24-.23-.54-.42-.79-.65-1.14-1.03-2.84-1.76-4.33-2.11-3.65-.84-7.5.31-10,3.05l-1.03,1.21c-.36.5-.71,1.1-.96,1.65-.61,1.33-.99,2.87-.99,4.34,0,1.04.14,1.87.39,2.87.3,1.2.59,1.7,1.19,2.74.85,1.48-.12,3.2-.61,4.62,0,0,0,.01,0,.02h0Z"/>
    </g>
  </g>
</svg>