<?xml version="1.0" encoding="UTF-8"?>
<svg id="Camada_2" data-name="Camada 2" xmlns="http://www.w3.org/2000/svg" viewBox="0 0 50 50">
  <defs>
    <style>
      .cls-1 {
        fill: gray;
      }
    </style>
  </defs>
  <g id="Camada_1-2" data-name="Camada 1">
    <path class="cls-1" d="M10.44,32.9l6.22,6.94c.79.88,2.24.61,2.65-.51l7.62-20.76,6.27,12.8c.46.94,1.79.93,2.25,0L49.85,1.77c.22-.45.03-.98-.41-1.2h0c-.45-.22-1-.04-1.22.41l-13.88,28.61-6.2-12.64c-.55-1.12-2.17-1.04-2.6.14l-7.8,21.26-5.9-6.58c-.87-.97-2.44-.78-3.05.38l-6.99,13.29V.9c0-.5-.4-.9-.9-.9h0c-.5,0-.9.4-.9.9v47.06c0,1.12.91,2.04,2.04,2.04h47.06c.5,0,.9-.4.9-.9h0c0-.5-.4-.9-.9-.9H2.4l8.04-15.3Z"/>
  </g>
</svg>