<?xml version="1.0" encoding="UTF-8"?>
<svg id="Camada_2" data-name="Camada 2" xmlns="http://www.w3.org/2000/svg" viewBox="0 0 480.93 89.64">
  <defs>
    <style>
      .cls-1 {
        fill: #666;
      }
    </style>
  </defs>
  <g id="Camada_1-2" data-name="Camada 1">
    <g>
      <path class="cls-1" d="M412.41,58.5l10.77,12.02c1.37,1.53,3.88,1.05,4.59-.88l13.2-35.96,10.87,22.17c.79,1.62,3.11,1.62,3.9,0l24.94-51.24c.38-.77.06-1.7-.71-2.08h0c-.78-.39-1.73-.07-2.11.72l-24.04,49.54-10.73-21.9c-.95-1.94-3.76-1.79-4.51.23l-13.51,36.81-10.21-11.39c-1.51-1.68-4.23-1.34-5.28.66l-12.1,23.02V3.09c0-.86-.7-1.56-1.56-1.56h0c-.86,0-1.56.7-1.56,1.56v81.5c0,1.95,1.58,3.53,3.53,3.53h81.5c.86,0,1.56-.7,1.56-1.56h0c0-.86-.7-1.56-1.56-1.56h-80.87l13.92-26.49Z"/>
      <g>
        <path class="cls-1" d="M220.24,43.59l-30.37-20.3,29.96-20.13c.43-.29.62-.83.47-1.32-.15-.5-.62-.83-1.14-.83,0,0-15.96.21-31.95.46-7.99.13-15.99.27-22,.4q-10.79.24-11.13,1.09c-.06.16-.09.33-.08.5l.6,42.04c0,.65.54,1.17,1.19,1.16l63.82-.92c.51,0,.96-.35,1.11-.84.15-.49-.05-1.02-.47-1.31ZM156.93,44.29l-.57-39.83c5.86-.28,36.27-.76,58.89-1.06l-28.14,18.91c-.32.22-.52.58-.52.98,0,.39.2.76.52.98l28.69,19.18-58.87.85Z"/>
        <path class="cls-1" d="M144.82,2.17c-.65,0-1.17.54-1.16,1.19l1.21,84.13c0,.65.54,1.17,1.19,1.16s1.17-.54,1.16-1.19l-1.21-84.13c0-.65-.54-1.17-1.19-1.16Z"/>
      </g>
      <g>
        <path class="cls-1" d="M285.91,2.29c-.17-.45-.61-.77-1.12-.77s-.94.32-1.12.77l-15.83,26.91c-.34.57-.15,1.31.43,1.65.57.34,1.31.15,1.65-.43l13.66-23.23v79.71c0,.67.54,1.21,1.21,1.21s1.21-.54,1.21-1.21V7.2l13.66,23.23c.22.38.63.59,1.04.59.21,0,.42-.05.61-.17.57-.34.77-1.08.43-1.65l-15.83-26.91Z"/>
        <path class="cls-1" d="M345.02,58.79c-.57-.34-1.31-.15-1.65.43l-13.66,23.23V2.73c0-.67-.54-1.21-1.21-1.21s-1.21.54-1.21,1.21v79.71l-13.66-23.23c-.34-.57-1.08-.76-1.65-.43-.57.34-.77,1.08-.43,1.65l15.83,26.91c.17.45.61.77,1.12.77s.94-.32,1.12-.77l15.83-26.91c.34-.57.15-1.31-.43-1.65Z"/>
      </g>
      <g>
        <path class="cls-1" d="M80.11,76.12H4.07c-2.25,0-4.07-1.82-4.07-4.07v-15.8c0-2.25,1.82-4.07,4.07-4.07h64.08c.84,0,1.52.68,1.52,1.52h0c0,.84-.68,1.52-1.52,1.52H3.04v17.86h78.1v-8.61c0-.84.68-1.52,1.52-1.52h0c.84,0,1.52.68,1.52,1.52v7.58c0,2.25-1.82,4.07-4.07,4.07Z"/>
        <path class="cls-1" d="M54.35,24.98H3.48c-1.92,0-3.48-1.56-3.48-3.48V3.48C0,1.56,1.56,0,3.48,0h37.36c.84,0,1.52.68,1.52,1.52h0c0,.84-.68,1.52-1.52,1.52H3.04v18.9h51.74v-6.96c0-.84.68-1.52,1.52-1.52h0c.84,0,1.52.68,1.52,1.52v6.53c0,1.92-1.56,3.48-3.48,3.48Z"/>
        <path class="cls-1" d="M68.92,39.39H1.52c-.84,0-1.52-.68-1.52-1.52h0c0-.84.68-1.52,1.52-1.52h67.4c.84,0,1.52.68,1.52,1.52h0c0,.84-.68,1.52-1.52,1.52Z"/>
        <path class="cls-1" d="M108.55,89.64H1.52c-.84,0-1.52-.68-1.52-1.52h0c0-.84.68-1.52,1.52-1.52h107.03c.84,0,1.52.68,1.52,1.52h0c0,.84-.68,1.52-1.52,1.52Z"/>
      </g>
    </g>
  </g>
</svg>