<?xml version="1.0" encoding="UTF-8"?>
<svg id="Camada_2" data-name="Camada 2" xmlns="http://www.w3.org/2000/svg" viewBox="0 0 302.95 64.74">
  <defs>
    <style>
      .cls-1 {
        fill: #fff;
      }

      .cls-2 {
        opacity: .7;
      }
    </style>
  </defs>
  <g id="Camada_1-2" data-name="Camada 1">
    <g>
      <g class="cls-2">
        <path class="cls-1" d="M262.39,14.83v1.94h-9.31V.28h2.07v14.55h7.25Z"/>
        <path class="cls-1" d="M265.62,8.53c0-4.87,3.64-8.53,8.63-8.53s8.63,3.65,8.63,8.53-3.64,8.52-8.63,8.52-8.63-3.65-8.63-8.52ZM280.77,8.53c0-3.72-2.77-6.5-6.52-6.5s-6.52,2.8-6.52,6.5,2.77,6.5,6.52,6.5,6.52-2.78,6.52-6.5Z"/>
        <path class="cls-1" d="M302.95,8.58c-.1,4.96-3.49,8.46-8.25,8.46s-8.37-3.6-8.37-8.52S289.86.03,294.66.03c3.97,0,7.3,2.49,8.03,6h-2.13c-.71-2.38-3.06-3.98-5.86-3.98-3.64,0-6.26,2.69-6.26,6.48s2.54,6.49,6.26,6.49c3.03,0,5.4-1.79,6-4.48h-6.59v-1.96h8.84Z"/>
      </g>
      <g>
        <path class="cls-1" d="M61.99,36.33v27.82c0,.33.26.59.59.59h7.69c.33,0,.59-.26.59-.59v-31.37c0-.98.79-1.78,1.78-1.78h17.16c.33,0,.59-.26.59-.59v-7.69c0-.33-.26-.59-.59-.59h-13.61c-7.84,0-14.2,6.36-14.2,14.2Z"/>
        <path class="cls-1" d="M125.32,55.86h-11.84c-.98,0-1.78-.79-1.78-1.78v-21.31c0-.98.79-1.78,1.78-1.78h8.29c.33,0,.59-.26.59-.59v-7.69c0-.33-.26-.59-.59-.59h-17.39c4.37-2.42,7.32-7.08,7.32-12.43v-1.18c0-.11-.03-.21-.07-.29-.1-.18-.3-.3-.52-.3h-7.69c-.33,0-.59.26-.59.59v1.18c0,5.13-2.72,9.62-6.79,12.11-.19.12-.31.33-.31.55v8.05c0,.33.26.59.59.59h5.92c.33,0,.59.26.59.59v18.94c0,.22,0,.44.02.66,0,.08,0,.16.01.25.03.52.09,1.03.18,1.53.01.07.02.14.04.2.03.16.06.33.1.49.02.07.03.14.05.21.09.37.19.74.31,1.1.02.07.04.13.07.2.06.16.11.32.17.48.03.07.06.14.08.21.05.12.09.23.15.35.05.1.09.21.14.31.03.06.05.11.08.17.02.05.05.09.07.14,0,.01,0,.02.02.04.03.06.06.12.09.18.08.15.16.31.25.46.04.07.08.15.13.22.04.07.09.15.13.22.09.15.18.29.28.44.05.07.1.14.15.22.05.07.1.14.15.21.09.13.18.25.28.37.06.08.13.17.19.25.12.15.24.29.36.43.05.06.1.11.15.17.07.08.14.16.22.24.09.1.18.19.28.29.1.1.2.2.3.3.07.06.13.12.2.18.1.09.21.19.32.28.06.06.12.11.19.16.05.04.1.08.15.12.21.17.43.34.66.5.03.02.06.05.09.07.32.22.65.43.98.63.08.05.15.09.23.13.13.07.25.14.38.2.07.04.15.08.22.11.03.02.05.03.08.04.07.03.13.06.2.09.26.12.52.24.79.34.08.03.16.06.23.09.42.16.85.3,1.29.42.06.02.13.04.19.05.14.04.28.07.42.1.08.02.16.04.24.05.09.02.18.04.26.05.06.01.13.02.19.03.29.05.59.09.89.12.06,0,.11.01.17.02.1,0,.2.02.3.03.07,0,.13,0,.2.01.07,0,.15,0,.22.01.22,0,.44.02.66.02h8.29c.33,0,.59-.27.59-.59v-7.69c0-.33-.26-.59-.59-.59Z"/>
        <path class="cls-1" d="M154.32,22.13h-10.65c-.98,0-1.78-.79-1.78-1.78v-11.84c0-.33-.26-.59-.59-.59h-7.69c-.33,0-.59.26-.59.59v55.63c0,.33.26.59.59.59h7.69c.33,0,.59-.26.59-.59v-31.37h0c0-.98.79-1.78,1.77-1.78h0s0,0,0,0h14.2c.98,0,1.78.79,1.78,1.78v31.37c0,.33.26.59.59.59h7.69c.33,0,.59-.26.59-.59v-27.82c0-7.84-6.36-14.2-14.2-14.2Z"/>
        <path class="cls-1" d="M56.49,64.31l-3.38-8.44-5.68-14.2-4.26-10.65-3.55-8.88-5.6-14c-.05-.12-.16-.2-.29-.2h-10.93c-.13,0-.25.08-.29.2l-5.6,14-3.55,8.88-4.26,10.65-5.68,14.2L.02,64.31c-.08.21.07.43.29.43h8.88c.13,0,.24-.08.29-.2l3.47-8.68,1.31-3.27.65-1.62s.01-.03.02-.05l.08-.2s.04-.08.07-.11c.06-.06.14-.09.22-.09h25.9c.09,0,.17.04.23.1.03.03.05.06.07.1l.08.2s.01.03.02.05l.65,1.62,1.31,3.27,3.47,8.68c.05.12.17.2.29.2h8.88c.22,0,.38-.23.29-.43ZM28.26,41.66h-9.15c-.18,0-.31-.14-.32-.31,0-.04,0-.08.02-.13l4.09-10.22,2.77-6.91.79-1.96.03-.07.22-.54c.04-.09.08-.18.13-.26.64-1.06,2.21-1.06,2.85,0,.05.08.09.17.13.26l.22.54.03.07.79,1.96,2.77,6.91,7.47,18.75c-2.28-4.79-7.17-8.09-12.82-8.09Z"/>
        <path class="cls-1" d="M209.36,22.13h-24.96c-.47,0-.92.19-1.26.52l-6.67,6.67c-.62.62-.18,1.68.7,1.68h24.49c.33,0,.59.26.59.59v7.69c0,.33-.26.59-.59.59h-11.84c-7.84,0-14.2,6.36-14.2,14.2v8.88c0,.98.79,1.78,1.78,1.78h27.42c3.49,0,6.31-2.83,6.31-6.31V23.9c0-.98-.79-1.78-1.78-1.78ZM201.66,55.86h-16.57c-.33,0-.59-.26-.59-.59v-4.73c0-.98.79-1.78,1.78-1.78h15.39c.33,0,.59.26.59.59v5.92c0,.33-.26.59-.59.59Z"/>
        <path class="cls-1" d="M223.58,10.9v23.43c0,.53.64.79,1.01.42l7.35-7.35c.33-.33.52-.78.52-1.26V2.02c0-.98-.79-1.78-1.78-1.78h-24.96c-.47,0-.92.19-1.26.52l-7.35,7.35c-.37.37-.11,1.01.42,1.01h24.26c.98,0,1.78.79,1.78,1.78Z"/>
      </g>
    </g>
  </g>
</svg>