<?xml version="1.0" encoding="UTF-8"?>
<svg id="Camada_2" data-name="Camada 2" xmlns="http://www.w3.org/2000/svg" viewBox="0 0 50 50">
  <defs>
    <style>
      .cls-1 {
        fill: #e3e3e3;
        fill-rule: evenodd;
      }

      .cls-2 {
        fill: #1a1a1a;
      }
    </style>
  </defs>
  <g id="Camada_1-2" data-name="Camada 1">
    <g>
      <path class="cls-1" d="M25,0c13.81,0,25,11.19,25,25s-11.19,25-25,25S0,38.81,0,25,11.19,0,25,0h0Z"/>
      <path class="cls-2" d="M36.11,16.41s-.01-.01-.02-.02c-.01-.01-.03-.03-.04-.04-.5-.45-1.17-.73-1.9-.73H15.86c-.73,0-1.4.28-1.9.73-.02.01-.03.03-.04.04,0,0-.01.01-.02.02-.54.52-.88,1.25-.88,2.06v13.06c0,.81.34,1.54.88,2.06,0,0,.01.01.02.02.01.01.03.03.04.04.5.45,1.17.73,1.9.73h18.29c.73,0,1.4-.28,1.9-.73.02-.01.03-.03.04-.04,0,0,.01-.01.02-.02.54-.52.88-1.25.88-2.06v-13.06c0-.81-.34-1.54-.88-2.06ZM28.34,25l7.34-7.42c.15.26.24.56.24.89v13.06c0,.32-.09.63-.24.89l-7.34-7.42ZM34.14,16.7c.26,0,.51.06.73.16l-7.67,7.76s0,0,0,0c0,0,0,0,0,0l-1.34,1.35c-.23.23-.53.36-.86.36s-.63-.13-.86-.36l-1.34-1.35s0,0,0,0c0,0,0,0,0,0l-7.67-7.76c.22-.1.47-.16.73-.16h18.29ZM14.33,32.42c-.15-.26-.24-.56-.24-.89v-13.06c0-.32.09-.63.24-.89l7.34,7.42-7.34,7.42ZM15.86,33.3c-.26,0-.51-.06-.73-.16l7.29-7.38.95.96c.43.44,1.01.68,1.63.68s1.19-.24,1.63-.68l.95-.96,7.29,7.38c-.22.1-.47.16-.73.16H15.86Z"/>
    </g>
  </g>
</svg>