<?xml version="1.0" encoding="UTF-8"?>
<svg id="Camada_2" data-name="Camada 2" xmlns="http://www.w3.org/2000/svg" viewBox="0 0 51.98 51.98">
  <defs>
    <style>
      .cls-1 {
        fill-rule: evenodd;
      }

      .cls-1, .cls-2 {
        fill: #a3a3a3;
      }
    </style>
  </defs>
  <g id="Camada_1-2" data-name="Camada 1">
    <g>
      <path class="cls-2" d="M20.3,18.19c-.3.1-.55.28-.93.67-.83.86-1.21,1.77-1.27,2.98-.06,1.39.48,2.93,1.71,4.83,2.05,3.17,4.12,5.03,6.85,6.17,1.4.58,2.31.88,2.91.97.45.06,1.35-.07,1.9-.29.5-.19,1.2-.65,1.51-.99.48-.52.89-1.69.89-2.52,0-.34-.01-.39-.13-.52-.25-.27-3.33-1.88-3.69-1.93-.33-.04-.46.05-1.01.68-.84.99-1.11,1.24-1.26,1.24-.18,0-1.35-.59-1.9-.96-1.36-.9-2.5-2.14-3.39-3.71-.07-.13-.13-.25-.13-.28s.16-.22.35-.43c.46-.5.61-.73.8-1.2.22-.53.21-.67-.08-1.47-.43-1.17-.56-1.53-.8-2.16-.24-.65-.43-.94-.68-1.04-.23-.1-1.42-.14-1.66-.06h0Z"/>
      <path class="cls-1" d="M11.45,25.86c0,1.55.21,2.61.52,3.87.45,1.8.84,2.41,1.62,3.76.68,1.18-1.32,3.79-1.32,6.02,0,1.84,3.91-.08,5.38-.63,1.55-.59,1.03-.02,4.14,1.02,4.84,1.62,11.08.1,14.61-3.71,2.65-2.87,4.01-6.36,4.14-9.8v-1.12c-.14-3.6-1.62-7.08-4.34-9.67-.39-.37-.58-.45-.98-.81-1.57-1.41-3.85-2.45-5.99-2.95-5.17-1.2-10.41.55-13.76,4.24l-1.28,1.49c-.49.66-1.01,1.56-1.38,2.35-.73,1.59-1.35,3.71-1.35,5.96h0ZM14.54,38.01c.91-.32,1.96-.79,2.42-.96.68-.26,1.32-.44,2.06-.33.58.09,1.01.32,1.52.57.61.3,1.22.54,1.86.75,4.15,1.39,9.58.04,12.57-3.19,2.17-2.34,3.49-5.32,3.62-8.52v-1.04c-.13-3.16-1.44-6.12-3.74-8.31-.29-.28-.63-.5-.94-.77-1.35-1.22-3.36-2.09-5.13-2.5-4.33-1-8.89.36-11.85,3.61l-1.23,1.43c-.43.59-.84,1.3-1.14,1.96-.73,1.58-1.17,3.4-1.17,5.14,0,1.23.17,2.22.46,3.4.35,1.42.7,2.01,1.41,3.25,1.01,1.75-.14,3.79-.72,5.48,0,0,0,.02,0,.03h0Z"/>
      <path class="cls-1" d="M25.99,0c14.35,0,25.99,11.64,25.99,25.99s-11.64,25.99-25.99,25.99S0,40.34,0,25.99,11.64,0,25.99,0h0ZM25.99,2.1c13.19,0,23.89,10.7,23.89,23.89s-10.7,23.89-23.89,23.89S2.1,39.19,2.1,25.99,12.8,2.1,25.99,2.1h0Z"/>
    </g>
  </g>
</svg>